<svg width="445" height="131" viewBox="0 0 445 131" fill="none" xmlns="http://www.w3.org/2000/svg">
<path d="M0 14.9988C0 6.61247 6.61564 0 15 0H426C434.384 0 441 6.61247 441 14.9988V115.991C441 124.377 434.384 130.99 426 130.99H15C6.61564 130.99 0 124.377 0 115.991V14.9988Z" fill="#DFE1E2"/>
<path d="M445 130.99C442.574 128.6 441.97 127.902 441 125.99C440.583 124.345 440.922 120.143 441 118.991C441.194 117.801 441 116.991 441 116.991C441.115 115.657 441 114.991 441 114.991C441 114.991 430.547 123.653 434 127.99C438.367 131.336 445 130.99 445 130.99Z" fill="#DFE1E2"/>
</svg>
