<svg width="482" height="81" viewBox="0 0 482 81" fill="none" xmlns="http://www.w3.org/2000/svg">
<path d="M0 14.9979C0 6.57837 6.62522 0 15 0H463C471.375 0 479 6.57837 479 14.9979V65.9909C479 74.4104 471.375 80.9888 463 80.9888H15C6.62522 80.9888 0 74.4104 0 65.9909V14.9979Z" fill="#DFE1E2"/>
<path d="M482 80.9888C479.577 78.5893 478.969 77.9091 478 75.9895C477.583 74.338 477.922 70.1468 478 68.9905C478.194 67.7962 478 66.9907 478 66.9907C478.114 65.6511 478 64.991 478 64.991C478 64.991 467.551 73.6346 471 77.9892C475.362 81.3485 482 80.9888 482 80.9888Z" fill="#DFE1E2"/>
</svg>
