<svg width="53" height="53" viewBox="0 0 53 53" fill="none" xmlns="http://www.w3.org/2000/svg">
<g filter="url(#filter0_d_571_3)">
<path d="M37.2247 45H15.7753C9.29667 45 4 39.7033 4 33.2247V11.7753C4 5.29669 9.29667 0 15.7753 0H37.2247C43.7033 0 49 5.29669 49 11.7753V33.2247C49 39.7033 43.7033 45 37.2247 45ZM15.7753 1.75097C10.2597 1.75097 5.75095 6.25973 5.75095 11.7753V33.2247C5.75095 38.7403 10.2597 43.249 15.7753 43.249H37.2247C42.7403 43.249 47.249 38.7403 47.249 33.2247V11.7753C47.249 6.25973 42.7403 1.75097 37.2247 1.75097H15.7753Z" fill="#F7F5F5"/>
<path d="M26.5 33.0058C20.7218 33.0058 15.9941 28.2782 15.9941 22.5C15.9941 16.7218 20.7218 11.9942 26.5 11.9942C32.2782 11.9942 37.0058 16.7218 37.0058 22.5C37.0058 28.2782 32.2782 33.0058 26.5 33.0058ZM26.5 13.7451C21.6848 13.7451 17.7451 17.6848 17.7451 22.5C17.7451 27.3152 21.6848 31.2549 26.5 31.2549C31.3152 31.2549 35.2548 27.3152 35.2548 22.5C35.2548 17.6848 31.3152 13.7451 26.5 13.7451Z" fill="#F7F5F5"/>
<path d="M37.9251 11.9066C37.0059 11.9066 36.2617 11.1625 36.2617 10.2432C36.2617 9.32393 37.0059 8.57977 37.9251 8.57977C38.8444 8.57977 39.5886 9.32393 39.5886 10.2432C39.5886 11.1625 38.8444 11.9066 37.9251 11.9066ZM37.9251 10.1556C37.8814 10.1556 37.8376 10.1994 37.8376 10.2432C37.8376 10.3745 38.0565 10.3745 38.0565 10.2432C38.0127 10.1994 37.9689 10.1556 37.9251 10.1556Z" fill="#F7F5F5"/>
</g>
<defs>
<filter id="filter0_d_571_3" x="0" y="0" width="53" height="53" filterUnits="userSpaceOnUse" color-interpolation-filters="sRGB">
<feFlood flood-opacity="0" result="BackgroundImageFix"/>
<feColorMatrix in="SourceAlpha" type="matrix" values="0 0 0 0 0 0 0 0 0 0 0 0 0 0 0 0 0 0 127 0" result="hardAlpha"/>
<feOffset dy="4"/>
<feGaussianBlur stdDeviation="2"/>
<feComposite in2="hardAlpha" operator="out"/>
<feColorMatrix type="matrix" values="0 0 0 0 0 0 0 0 0 0 0 0 0 0 0 0 0 0 0.25 0"/>
<feBlend mode="normal" in2="BackgroundImageFix" result="effect1_dropShadow_571_3"/>
<feBlend mode="normal" in="SourceGraphic" in2="effect1_dropShadow_571_3" result="shape"/>
</filter>
</defs>
</svg>
