<svg id="Слой_1" data-name="Слой 1" xmlns="http://www.w3.org/2000/svg" viewBox="0 0 248.36 248.36"><defs><style>.cls-1,.cls-2{fill:none;stroke:#f7f5f5;stroke-miterlimit:10;}.cls-1{stroke-width:3px;}.cls-2{stroke-width:4px;}.cls-3{fill:#f7f5f5;}</style></defs><circle class="cls-1" cx="124.18" cy="124.18" r="108.95"/><circle class="cls-2" cx="124.18" cy="124.18" r="122.18"/><path class="cls-3" d="M33.41,393.68c-.33-2.24,1.66-4.31,2.82-4.89s.83,0,.25,1.66c-1.41,4.3,8.94,2.15,21.28.33,24.19-3.64,30.9-2.9,31,1.91.08,3.47-2.57,6.2-6.29,7.69-1.08.42-.75.08-.58-1.57.16-3.89-5.39-4.47-20.46-3v.25c-2.65,21.52-4.89,37.9-7.21,45.68-.66,2.4-8.2,2.57-7.78,1.74,2.48-7,7-22.68,11.34-44.69a10.38,10.38,0,0,1,1.08-2.73c-1.9.16-3.89.41-6,.66C40.62,398.15,34,396.58,33.41,393.68Z" transform="translate(-3.04 -294.78)"/><path class="cls-3" d="M84.18,430.34c2.57-1.16,4.81-4.14,5.88-7.36.42-1.08,2.65-2.24,2-.17-1.41,4.55-4.88,8.28-8.45,9.19-2.89,6.7-7.62,11.09-11.84,11.09-5.05,0-10.1-5.3-8.86-13.41,1.32-7.94,6.62-13.08,11.76-14.81,1.49-.5,1.49.74.58,1.4-1.57,1.16-3.48,5.63-4.64,12.42s-.08,11.25,2.82,11.42c2,.16,5-2.4,7-8.11a5.85,5.85,0,0,1-2.81-1.49c-5.47-4.8-2.82-16.72,3.64-17.38,4.06-.33,6.3,5.13,4,14.15A30.45,30.45,0,0,1,84.18,430.34Zm-3.47.33c.24-.91.41-1.82.66-2.89,1.07-5.22,0-8.2-2.16-7.62-2,.58-3,6.62-.49,9.19A4.36,4.36,0,0,0,80.71,430.67Z" transform="translate(-3.04 -294.78)"/><path class="cls-3" d="M94.2,442.43a5.94,5.94,0,0,1-2.31-.5c-1.33,9-2.57,16.8-3.32,18.79-.83,2.15-7.95,2.31-7.78,1.74,2.56-7,5.79-28.14,8.11-44.28.42-2.9,4.39-3.73,5.3-3.73,1.08,0,1.16.08.92,2.4L94,426c2.65-7.2,6-12,9.77-12,3.32,0,7.37,3.72,5.72,13.4C107.79,437.46,100.66,442.76,94.2,442.43Zm-1.82-4.72-.33,2.56a6.49,6.49,0,0,0,2.32.34c2.73,0,5-4.23,7.21-11.76,1.65-6,2.48-11.83.41-11.83-2.32,0-5.88,7.2-9.44,20.36C92.47,437.46,92.47,437.63,92.38,437.71Z" transform="translate(-3.04 -294.78)"/><path class="cls-3" d="M117.31,427.53c3.48-7.86,8-13.57,11.85-13.57,2.56,0,3.8,3.39,3.31,8.77,3-5.38,6-8.77,9.36-8.77s4.14,4.71,2.48,13.24c-1.9,9.18-3.48,12.91-2.15,12.91,1.65,0,4.89-6,7.45-13.82.33-1.08,2.57-2.24,2-.17-2.57,8.36-7,16.72-10.52,16.72s-6.38-4.63-4.72-13.49c1.33-7.86,4.8-11.92,2.73-11.92s-4.72,5.05-8.86,14.82c-2.81,8.85-5,8.6-6.62,8.6-1.5,0-1.58-4-.09-10.18,1.74-7.53,5-13.24,2.9-13.24-2.32,0-7.29,8.36-10.93,21.52,0,.17-.08.25-.08.33-.83,2.4-4.23,3.15-5,3.15-1.08,0-1.33,0-1-2.32l2.82-23.75c.25-2.24,8.2-2.4,8-1.74C120,416.36,118.72,420,117.31,427.53Z" transform="translate(-3.04 -294.78)"/><path class="cls-3" d="M160.05,440.52a5.76,5.76,0,0,0,1.24.09c11,.41,20.71-11.1,23.6-25.83,3-15.31-.66-25.24-12.09-24.66a21.25,21.25,0,0,0-18.63,14.65c-.42,1.07-2.65,2.23-2,.16,2.48-8.35,11.43-17.13,21.86-17.54,13.34-.5,21.7,10,18.72,26.23-3.14,17.14-15.73,30.88-34,29.55-9.35-.66-14.82-5.79-12-14.57,1.91-5.62,7.54-9,13.59-9.68,1.65-11.17,3.31-21.93,4.14-24.17.83-2.06,8-2.23,7.87-1.65-1.58,4-4.72,15.14-7.46,25.9a21.83,21.83,0,0,1,4.89,1.41c.83.33,1,1.82.58,1.66a28.09,28.09,0,0,0-6-1.16c-1.74,7-3.32,13.74-4.06,18A12.36,12.36,0,0,1,160.05,440.52Zm-2.74-.49c.75-5,1.66-11.92,2.74-18.87a10.21,10.21,0,0,0-8,7.11C149.86,434.32,152.26,438.54,157.31,440Z" transform="translate(-3.04 -294.78)"/><path class="cls-3" d="M216,419.58c-1.16,5.55-5.3,20.53-2.9,20.53,1.66,0,4.47-6,7-13.82.42-1.08,2.57-2.24,2-.17-2.65,8.61-6.87,16.72-10.52,16.72-2.48,0-5.05-3.06-5.13-9.43-2.07,5.54-4.64,9.43-7.71,9.43-5.13,0-9.27-8.11-5.21-26.32.49-2.15,8.28-2.48,8.11-1.9-4.72,19-4.55,25.49-1.65,25.49,2.4,0,6-9.6,8.11-20.2a13,13,0,0,1,.75-3.55c.74-2.07,8.45-3.07,8.2-1.83C216.78,415.61,216.45,416.93,216,419.58Z" transform="translate(-3.04 -294.78)"/></svg>