<svg width="37" height="51" viewBox="0 0 37 51" fill="none" xmlns="http://www.w3.org/2000/svg">
<g filter="url(#filter0_d_571_2)">
<path d="M18.479 22.7749C12.3317 22.7749 7.36335 17.6754 7.36335 11.409C7.36335 5.14271 12.3317 0 18.479 0C24.6263 0 29.5525 5.0995 29.5525 11.409C29.5525 17.6754 24.5842 22.7749 18.479 22.7749ZM18.479 2.33367C13.5948 2.33367 9.637 6.39598 9.637 11.409C9.637 16.4221 13.5948 20.4844 18.479 20.4844C23.3631 20.4844 27.321 16.4221 27.321 11.409C27.321 6.39598 23.3631 2.33367 18.479 2.33367Z" fill="#F7F5F5"/>
<path d="M18.2684 29.1709V26.8804C23.0684 26.8804 26.8999 25.3678 31.1524 21.7809C31.4472 21.5216 31.8682 21.4352 32.2893 21.5216C32.5419 21.5648 32.7103 21.7809 32.8366 21.997L32.9629 22.3427C33.0893 22.7749 32.8787 23.207 32.5419 23.4231L32.4577 23.4663C28.5841 27.1829 23.5315 29.2141 18.2684 29.1709Z" fill="#F7F5F5"/>
<path d="M18.6895 29.1709C13.4264 29.2141 8.37383 27.1829 4.54231 23.5096L4.4581 23.4663C4.12126 23.2503 3.91074 22.7749 4.03705 22.3859L4.16337 22.0402C4.24758 21.7809 4.4581 21.608 4.71073 21.5648C5.08967 21.4784 5.51072 21.608 5.84755 21.8673C10.058 25.4543 13.9316 26.9668 18.7316 26.9668L18.6895 29.1709Z" fill="#F7F5F5"/>
<path d="M7.23703 43C7.02651 43 6.81598 42.9136 6.68967 42.7839C6.52125 42.6111 6.39494 42.395 6.39494 42.1357C6.39494 41.6171 6.68967 41.0121 7.48966 40.191L18.1842 27.2261L19.0684 27.9608L18.6895 28.393L19.4474 29.0412C19.0684 29.5166 10.0159 40.6663 8.50017 42.4382C8.20544 42.7839 7.78439 42.9568 7.36335 43H7.23703Z" fill="#F7F5F5"/>
<path d="M29.5525 43H29.4683C29.0473 42.9568 28.6262 42.7407 28.3315 42.4382C26.8157 40.6663 17.7632 29.5166 17.3843 29.0412L18.1421 28.4362L17.7632 28.004L18.6053 27.2693L29.2578 40.191C30.0578 41.0553 30.3946 41.6603 30.3946 42.1789C30.3946 42.4382 30.2683 42.6543 30.0999 42.8271C29.9315 42.9568 29.763 43 29.5525 43Z" fill="#F7F5F5"/>
</g>
<defs>
<filter id="filter0_d_571_2" x="0" y="0" width="37" height="51" filterUnits="userSpaceOnUse" color-interpolation-filters="sRGB">
<feFlood flood-opacity="0" result="BackgroundImageFix"/>
<feColorMatrix in="SourceAlpha" type="matrix" values="0 0 0 0 0 0 0 0 0 0 0 0 0 0 0 0 0 0 127 0" result="hardAlpha"/>
<feOffset dy="4"/>
<feGaussianBlur stdDeviation="2"/>
<feComposite in2="hardAlpha" operator="out"/>
<feColorMatrix type="matrix" values="0 0 0 0 0 0 0 0 0 0 0 0 0 0 0 0 0 0 0.25 0"/>
<feBlend mode="normal" in2="BackgroundImageFix" result="effect1_dropShadow_571_2"/>
<feBlend mode="normal" in="SourceGraphic" in2="effect1_dropShadow_571_2" result="shape"/>
</filter>
</defs>
</svg>
