<svg width="53" height="52" viewBox="0 0 53 52" fill="none" xmlns="http://www.w3.org/2000/svg">
<g filter="url(#filter0_d_568_20)">
<path d="M19.5488 9.00954C17.5035 8.92116 15.9511 9.6983 14.9746 10.6326C14.4863 11.0997 14.1338 11.5996 13.8926 12.0662C13.6513 12.5328 13.498 12.9175 13.498 13.4177C13.498 13.3732 13.4871 13.6071 13.4805 13.8787C13.4739 14.1503 13.4751 14.5164 13.5 14.9588C13.55 15.8434 13.6999 17.0401 14.0977 18.4588C14.8932 21.2962 16.6844 25.0182 20.5703 28.9041C24.4562 32.7899 28.178 34.581 31.0156 35.3767C32.4344 35.7746 33.6309 35.9243 34.5156 35.9744C34.958 35.9994 35.3221 36.0005 35.5938 35.9939C35.8654 35.9873 36.101 35.9763 36.0566 35.9763C36.5569 35.9763 36.9416 35.8231 37.4082 35.5818C37.8748 35.3405 38.3747 34.988 38.8418 34.4998C39.7761 33.5233 40.5532 31.9709 40.4648 29.9256C40.4229 28.9501 39.8813 28.0862 39.082 27.574C38.4643 27.1782 37.5055 26.5638 36.2539 25.7634C34.8018 24.8357 32.9445 24.7694 31.4297 25.5994L31.5156 25.5564L30.3379 26.0623L30.252 26.1228C29.9657 26.3238 29.6112 26.361 29.2891 26.2263C28.3868 25.849 26.981 25.1077 25.6738 23.8006C24.3667 22.4934 23.6254 21.0876 23.248 20.1853C23.1133 19.8632 23.1506 19.5087 23.3516 19.2224L23.4121 19.1365L23.918 17.9588L23.875 18.0447C24.7048 16.5302 24.6402 14.673 23.7109 13.2205C22.9106 11.9689 22.2962 11.01 21.9004 10.3923C21.3881 9.59306 20.5243 9.05148 19.5488 9.00954ZM19.4629 11.0076C19.7434 11.0196 20.033 11.1838 20.2168 11.4705C20.613 12.0888 21.2277 13.0482 22.0273 14.2986C22.558 15.1281 22.5953 16.2182 22.1211 17.0838L22.0977 17.1267L21.6152 18.2537L21.7148 18.072C21.1238 18.9138 21.0051 20.0069 21.4023 20.9568C21.853 22.0346 22.7149 23.6698 24.2598 25.2146C25.8046 26.7595 27.4398 27.6213 28.5176 28.072C29.4675 28.4693 30.5606 28.3505 31.4023 27.7595L31.2207 27.8591L32.3477 27.3767L32.3906 27.3533C33.2558 26.8793 34.3459 26.9188 35.1758 27.449V27.447C36.4262 28.2467 37.3856 28.8614 38.0039 29.2576C38.2906 29.4413 38.4547 29.731 38.4668 30.0115C38.5324 31.5302 38.005 32.481 37.3965 33.117C37.0923 33.4349 36.7623 33.6657 36.4902 33.8064C36.2181 33.9471 35.9579 33.9763 36.0566 33.9763C35.8732 33.9763 35.7766 33.9884 35.5469 33.9939C35.3171 33.9995 35.0091 33.9998 34.6289 33.9783C33.8684 33.9353 32.8188 33.8054 31.5547 33.4509C29.0265 32.742 25.6375 31.1431 21.9844 27.49C18.3312 23.8369 16.7322 20.4475 16.0234 17.9197C15.6691 16.6558 15.539 15.6058 15.4961 14.8455C15.4746 14.4653 15.4749 14.1572 15.4805 13.9275C15.4861 13.6978 15.498 13.6013 15.498 13.4177C15.498 13.5165 15.5273 13.2562 15.668 12.9841C15.8087 12.712 16.0394 12.3821 16.3574 12.0779C16.9934 11.4694 17.9442 10.942 19.4629 11.0076Z" fill="#F7F5F5"/>
<path d="M37.2247 45H15.7753C9.29667 45 4 39.7033 4 33.2247V11.7753C4 5.29669 9.29667 0 15.7753 0H37.2247C43.7033 0 49 5.29669 49 11.7753V33.2247C49 39.7033 43.7033 45 37.2247 45ZM15.7753 1.75097C10.2597 1.75097 5.75095 6.25973 5.75095 11.7753V33.2247C5.75095 38.7403 10.2597 43.249 15.7753 43.249H37.2247C42.7403 43.249 47.249 38.7403 47.249 33.2247V11.7753C47.249 6.25973 42.7403 1.75097 37.2247 1.75097H15.7753Z" fill="#F7F5F5"/>
</g>
<defs>
<filter id="filter0_d_568_20" x="0" y="0" width="53" height="53" filterUnits="userSpaceOnUse" color-interpolation-filters="sRGB">
<feFlood flood-opacity="0" result="BackgroundImageFix"/>
<feColorMatrix in="SourceAlpha" type="matrix" values="0 0 0 0 0 0 0 0 0 0 0 0 0 0 0 0 0 0 127 0" result="hardAlpha"/>
<feOffset dy="4"/>
<feGaussianBlur stdDeviation="2"/>
<feComposite in2="hardAlpha" operator="out"/>
<feColorMatrix type="matrix" values="0 0 0 0 0 0 0 0 0 0 0 0 0 0 0 0 0 0 0.25 0"/>
<feBlend mode="normal" in2="BackgroundImageFix" result="effect1_dropShadow_568_20"/>
<feBlend mode="normal" in="SourceGraphic" in2="effect1_dropShadow_568_20" result="shape"/>
</filter>
</defs>
</svg>
