<svg width="48" height="48" viewBox="0 0 48 48" fill="none" xmlns="http://www.w3.org/2000/svg">
<g filter="url(#filter0_d_571_4)">
<path d="M25.5939 22.7733C25.5486 22.7733 25.5033 22.7733 25.4581 22.7733C24.9603 22.6438 24.9151 22.1257 24.9151 21.6507L24.5531 1.01323C24.5531 0.754183 24.6436 0.538309 24.8246 0.322435C25.0056 0.149736 25.2318 0.063387 25.5033 0.063387H25.8201C26.3179 0.106562 26.7252 0.495134 26.7252 0.970056L26.9514 19.4057C27.8112 18.2399 28.8973 16.8152 30.0286 15.3041C34.3275 9.56183 39.6673 2.438 40.7534 1.09958C41.0701 0.797357 41.4774 0.538309 41.8847 0.36561C42.2919 0.236086 42.835 0.149736 43.1517 0.495134C43.378 0.797357 43.2875 1.14276 42.9707 1.53133C41.8394 2.91292 28.9425 19.6647 26.9514 22.3847L26.7252 22.6869L26.0464 22.5142C25.9106 22.6869 25.7749 22.7733 25.5939 22.7733Z" fill="#F7F5F5"/>
<path d="M43.197 40C42.9708 40 42.7445 39.9568 42.5182 39.9137L42.4277 39.8705C42.0657 39.7409 41.7037 39.5251 41.4322 39.2229C39.3053 36.9346 30.4359 27.4793 26.861 23.7231C26.9967 26.0977 27.223 30.4152 27.3135 37.7549C27.3135 38.1003 27.1325 38.4457 26.861 38.7048C26.5442 38.9206 26.1822 39.007 25.8202 38.9206C13.6473 36.287 6.36169 23.9822 4.18958 2.30847C4.09908 1.79038 4.05383 1.4018 4.00858 1.09958C3.96332 0.754184 4.09908 0.408786 4.37059 0.192912C4.73261 -0.0229612 5.23039 -0.0661359 5.63766 0.106563C5.90917 0.236087 6.09018 0.53831 6.13543 1.05641C6.99522 10.9434 10.5702 33.9987 25.4129 36.9346C25.2319 30.9765 25.0961 27.1771 24.9604 24.932C24.8699 23.4209 24.8699 22.4711 24.8699 21.953C24.8699 21.5644 25.2319 21.2622 25.6392 21.2622C25.7749 21.2622 25.9107 21.3053 26.0464 21.3917L26.1369 21.3485C26.3179 21.3053 27.042 21.1326 27.404 21.478L27.6755 21.7371C34.5538 28.9904 42.9708 37.8413 43.8306 38.9206C44.0116 39.1365 44.0568 39.4387 43.9211 39.6978C43.7401 39.9136 43.4685 40 43.197 40Z" fill="#F7F5F5"/>
</g>
<defs>
<filter id="filter0_d_571_4" x="0" y="0" width="48" height="48" filterUnits="userSpaceOnUse" color-interpolation-filters="sRGB">
<feFlood flood-opacity="0" result="BackgroundImageFix"/>
<feColorMatrix in="SourceAlpha" type="matrix" values="0 0 0 0 0 0 0 0 0 0 0 0 0 0 0 0 0 0 127 0" result="hardAlpha"/>
<feOffset dy="4"/>
<feGaussianBlur stdDeviation="2"/>
<feComposite in2="hardAlpha" operator="out"/>
<feColorMatrix type="matrix" values="0 0 0 0 0 0 0 0 0 0 0 0 0 0 0 0 0 0 0.25 0"/>
<feBlend mode="normal" in2="BackgroundImageFix" result="effect1_dropShadow_571_4"/>
<feBlend mode="normal" in="SourceGraphic" in2="effect1_dropShadow_571_4" result="shape"/>
</filter>
</defs>
</svg>
